<?xml version="1.0" encoding="utf-8"?>
<!-- Generator: Adobe Illustrator 27.7.0, SVG Export Plug-In . SVG Version: 6.00 Build 0)  -->
<svg version="1.1" id="Layer_1" xmlns="http://www.w3.org/2000/svg" xmlns:xlink="http://www.w3.org/1999/xlink" x="0px" y="0px"
	 width="30px" height="30px" viewBox="0 0 30 30" style="enable-background:new 0 0 30 30;" xml:space="preserve">
<style type="text/css">
	.st0{fill:#1481C5;}
</style>
<g>
	<path class="st0" d="M29.5,11.5c0,0.3,0,0.5,0,0.8c0,0.1-0.1,0.1-0.1,0.2c-0.1,0.4-0.1,0.7-0.2,1.1c-0.1,0.6-0.2,1.2-0.4,1.9
		c-0.2,0.8-0.3,1.6-0.5,2.4c-0.2,1-0.4,2-0.6,3c-0.2,0.8-0.3,1.7-0.5,2.5c-0.2,1-0.4,2-0.6,3c-0.1,0.7-0.3,1.4-0.8,1.9
		c-0.7,0.7-1.5,1-2.5,1c-3.4,0-6.8,0-10.2,0c-2.3,0-4.6,0-6.9,0c-1.1,0-1.9-0.6-2.5-1.6c-0.4-0.7-0.4-1.4-0.6-2.1
		c-0.2-0.7-0.3-1.5-0.4-2.2c-0.2-0.9-0.3-1.8-0.5-2.7C2,19.8,1.9,19,1.7,18.2c-0.2-1-0.4-2-0.6-3.1c-0.2-0.8-0.4-1.6-0.5-2.5
		c-0.1-0.4-0.1-0.8,0-1.2c0.3-1.2,1.1-1.7,2.3-1.8c0.4,0,0.7,0,1.1,0c0.1,0,0.2,0,0.3-0.1c0.4-0.5,0.8-1,1.2-1.5
		c0.5-0.7,1.1-1.3,1.6-2c0.5-0.7,1-1.3,1.5-2C9,3.5,9.5,2.9,10,2.2c0.4-0.4,0.7-0.9,1.1-1.3c0.4-0.4,0.8-0.4,1.3-0.2
		c0.4,0.2,0.7,0.5,0.7,1c0,0.4-0.2,0.7-0.4,1.1c-0.6,0.7-1.1,1.3-1.6,2C10.7,5.4,10.2,6,9.7,6.6c-0.5,0.7-1.1,1.3-1.6,2
		c-0.3,0.3-0.6,0.7-0.8,1c5,0,10,0,15,0c-0.6-0.7-1.2-1.4-1.7-2.1c-0.4-0.6-0.9-1.1-1.3-1.7c-0.5-0.6-0.9-1.2-1.4-1.8
		c-0.4-0.5-0.8-1-1.1-1.5c-0.3-0.5-0.3-1.2,0.1-1.6c0.3-0.4,1-0.5,1.5-0.2c0.3,0.2,0.6,0.5,0.8,0.8c0.6,0.8,1.2,1.5,1.8,2.3
		c0.4,0.6,0.9,1.1,1.3,1.7c0.5,0.6,1,1.3,1.5,1.9c0.5,0.6,0.9,1.2,1.4,1.7c0.1,0.2,0.2,0.4,0.5,0.4c0.6,0,1.3,0,1.9,0.1
		c0.6,0.1,1.1,0.3,1.4,0.8C29.2,10.8,29.3,11.2,29.5,11.5z M18.6,19.6c0,0.9,0,1.8,0,2.7c0,0.9,0.9,1.4,1.7,1.1
		c0.6-0.2,0.8-0.7,0.8-1.3c0-1.6,0-3.1,0-4.7c0-0.2,0-0.4-0.1-0.6c-0.2-0.6-0.5-0.8-1.3-0.9c-0.6,0-1.1,0.6-1.1,1.1
		C18.6,17.9,18.6,18.8,18.6,19.6z M13.8,19.7C13.8,19.7,13.8,19.7,13.8,19.7c0,0.9,0,1.7,0,2.6c0,0.6,0.3,0.9,0.8,1.1
		c0.4,0.1,0.8,0.1,1.2-0.2c0.4-0.3,0.5-0.7,0.5-1.2c0-1.3,0-2.5,0-3.8c0-0.4,0-0.8,0-1.2c-0.1-0.7-0.5-1.2-1.5-1.1
		c-0.4,0-1,0.6-0.9,1.2C13.8,18,13.8,18.8,13.8,19.7z M8.9,19.7C8.9,19.7,8.9,19.7,8.9,19.7c0,0.9,0,1.8,0,2.7
		c0,0.9,0.8,1.3,1.6,1.1c0.6-0.2,0.9-0.8,0.9-1.4c0-1.6,0-3.1,0-4.7c0-0.2,0-0.4-0.1-0.6c-0.2-0.6-0.6-0.8-1.3-0.8
		c-0.6,0-1,0.6-1,1.1C8.9,17.9,8.9,18.8,8.9,19.7z"/>
</g>
</svg>
