<?xml version="1.0" encoding="utf-8"?>
<!-- Generator: Adobe Illustrator 27.7.0, SVG Export Plug-In . SVG Version: 6.00 Build 0)  -->
<svg version="1.1" id="Layer_1" xmlns="http://www.w3.org/2000/svg" xmlns:xlink="http://www.w3.org/1999/xlink" x="0px" y="0px"
	 width="30px" height="30px" viewBox="0 0 30 30" style="enable-background:new 0 0 30 30;" xml:space="preserve">
<path style="fill:#1481C5;" d="M0.9,2c0-0.2,0-0.4,0-0.6c0.2-0.3,0.4-0.6,0.7-0.6c1.3,0,2.6,0,3.9,0c0.4,0,0.7,0.1,0.9,0.8
	C6.6,2.4,6.8,3.2,7,4.1c0.1,0.3,0.2,0.4,0.4,0.4c6.5,0,13,0,19.5,0c0.5,0,0.9,0.1,1.1,0.7c0,0.2,0,0.4,0,0.6c0,0-0.1,0.1-0.1,0.1
	c-0.2,0.7-0.3,1.3-0.5,2c-0.5,2-1,3.9-1.4,5.9c-0.4,1.5-0.8,3-1.1,4.5c-0.2,0.8-0.4,1-1.1,1c-4.4,0-8.9,0-13.3,0c-0.1,0-0.2,0-0.3,0
	c-0.2,0.1-0.4,0.9-0.3,1.1c0.1,0.4,0.4,0.8,0.9,0.8c4.4,0,8.7,0,13.1,0c0.1,0,0.1,0,0.2,0c0.6,0.1,0.8,0.4,0.8,0.9
	c0,0.6-0.5,0.9-0.9,0.9c-0.9,0-1.8,0-2.8,0c1.6,0.5,2.2,1.7,2,3.3c-0.1,1.2-1,2.1-2.2,2.3c-1.1,0.1-2.1-0.7-2.5-2
	c-0.2-0.8-0.1-1.5,0.2-2.2c0.4-0.7,0.9-1.1,1.5-1.3c-2.4,0-4.8,0-7.2,0c1.5,0.4,2.2,1.7,2,3.3c-0.2,1.3-1.1,2.2-2.2,2.3
	c-1.3,0.1-2.3-1-2.5-2.3c-0.2-1.3,0.3-2.7,2-3.2c-0.6,0-1.2,0-1.7,0c-0.2,0-0.4,0-0.6-0.1c-1.1-0.3-1.8-1.4-1.8-2.6
	c0-0.6,0.2-1.2,0.5-1.7c0.1-0.1,0.1-0.3,0.1-0.5c-0.2-0.8-0.4-1.5-0.6-2.3C7.6,13.2,7,10.8,6.4,8.3C6,6.5,5.6,4.7,5.1,2.9
	C5.1,2.7,5,2.6,4.7,2.6c-1,0-2,0-3.1,0c-0.2,0-0.4-0.1-0.5-0.2C1.1,2.3,1,2.1,0.9,2z"/>
</svg>
