<?xml version="1.0" encoding="utf-8"?>
<!-- Generator: Adobe Illustrator 27.7.0, SVG Export Plug-In . SVG Version: 6.00 Build 0)  -->
<svg version="1.1" id="Layer_1" xmlns="http://www.w3.org/2000/svg" xmlns:xlink="http://www.w3.org/1999/xlink" x="0px" y="0px"
	 width="790px" height="128px" viewBox="0 0 790 128" style="enable-background:new 0 0 790 128;" xml:space="preserve">
<g>
	<path style="fill:#1481C5;" d="M152.4,123.5c-7.4,0.3-14.4-0.5-21.1-3.2c-11.2-4.4-20.5-11.3-27.6-21.1
		c-6.1-8.3-9.7-17.6-10.9-27.8c-0.5-4.1-0.9-8.3-0.5-12.4c0.9-9.7,4-18.8,9.3-27.1c7.3-11.3,17.3-19.2,29.8-24
		c6-2.3,12.3-3.6,18.8-3.4c0.6,0,1.2,0,1.8,0c6.6-0.3,12.9,0.7,19.1,2.8c7.1,2.4,13.5,6.1,19.3,10.8c6.3,5,11.1,11.2,14.7,18.4
		c3.3,6.6,5.4,13.6,6.2,21c0.3,3,0.2,6.1,0.1,9.2c-0.1,2.9-0.2,5.9-0.7,8.8c-0.8,5.5-3,10.6-5.5,15.6c-4.2,8.2-10.1,15.1-17.2,20.8
		c-6.7,5.4-14.5,8.6-22.9,10.6C160.8,123.5,156.5,123.6,152.4,123.5z M138.8,27.5c-13.2-0.5-25,11.6-23.4,25.5
		c1.1,10.3,9.3,20.9,22.9,21c14.3,0.1,23.8-10.9,23.8-23.2C162,38.5,152.4,27.3,138.8,27.5z"/>
	<path style="fill:#333233;" d="M480.4,61.9c0.6,0.3,0.9,0.5,1.3,0.6c5.4,2.7,9.2,6.8,11.2,12.5c1.5,4.4,1.7,9,1.2,13.7
		c-0.6,5.3-2.6,9.8-6.3,13.6c-4.6,4.7-10.4,7.1-16.8,8.4c-5.5,1.1-11,0.9-16.6,0.9c-9.4,0-18.9,0-28.3-0.1c-2.1,0-4.1,0.1-6.2-0.1
		c-2.5-0.2-3.8-1.6-3.8-4.1c-0.1-3.4,0-6.8,0-10.2c0-25.2,0-50.5,0-75.7c0-4,1.7-4.9,5.3-5.1c1.8-0.1,3.5,0,5.3,0
		c11.5,0,23.1-0.1,34.6,0c5.4,0,10.8,0.8,15.8,3.2c5.9,2.8,10.2,7.1,12.1,13.4c2.2,7.5,2.4,15.1-2,22c-1.5,2.3-3.8,4.1-5.7,6.1
		C481.2,61.2,480.9,61.4,480.4,61.9z M442.4,90c4.2,0,8.3,0,12.4,0c1.9,0,3.8-0.1,5.6-0.3c2.3-0.3,4.1-1.4,5.1-3.5
		c1.5-3,1.3-6.1-0.4-9c-0.9-1.5-2.3-2.5-4.1-2.6c-3.6-0.2-7.2-0.4-10.8-0.5c-2.6-0.1-5.2,0-7.8,0C442.4,79.4,442.4,84.6,442.4,90z
		 M442.5,52.4c5,0,9.9,0.1,14.8,0c3.1-0.1,5.1-1.7,5.9-4.8c0.3-1.2,0.2-2.4,0.2-3.6c-0.1-2.9-1.8-5-4.6-5.7
		c-1.2-0.3-2.5-0.5-3.8-0.5c-3-0.1-6,0-8.9,0c-1.2,0-2.3,0-3.5,0C442.5,42.7,442.5,47.5,442.5,52.4z"/>
	<path style="fill:#333233;" d="M645.9,14.3c5.7,0.2,11.4,0.8,16.8,2.5c11.2,3.5,18.9,10.8,22.4,22.2c1.3,4.2,1.9,8.5,1.9,12.9
		c0,8,0.3,16,0.2,24c-0.1,6.1-1.2,12-3.7,17.6c-3.4,7.6-9.2,12.7-16.6,16.1c-4.2,1.9-8.6,2.9-13.2,3.3c-2.6,0.2-5.3,0.7-7.9,0.7
		c-4.2,0-8.3-0.5-12.4-1.3c-3.7-0.7-7.2-1.9-10.6-3.7c-7.2-3.7-12.3-9.3-15.3-16.8c-1.4-3.5-2.5-7.1-2.6-10.9
		c-0.2-10.5-0.4-21-0.2-31.4c0.1-9,3.2-17.1,9.5-23.7c5.4-5.6,12.2-8.9,19.9-10.1C638,15.1,642,14.8,645.9,14.3z M631.3,63.4
		c0,5.1-0.1,10.2,0,15.2c0.1,4.8,2.8,8.1,7,10c4.1,1.8,8.6,2.1,13,0.7c6.4-2,9.2-5.7,9.3-11.8c0.1-8.5,0-17,0-25.6
		c0-2.2-0.2-4.4-0.9-6.6c-1-3.1-3-5.1-5.9-6.2c-4.6-1.8-9.4-1.5-14.1-0.6c-3.9,0.7-8.1,4.3-8.3,9.9
		C631.2,53.5,631.3,58.5,631.3,63.4z"/>
	<path style="fill:#333233;" d="M268.3,14.6c5-0.1,9.9,0.2,14.7,1.6c12.1,3.6,21.2,10.6,24.6,23.3c0.8,3,1.2,6.1,1.5,9.1
		c1,10.2,0.7,20.4,0.2,30.5c-0.5,10.3-4.3,19.1-12.4,25.9c-4.4,3.7-9.6,5.7-15.1,7c-2.9,0.7-5.9,0.9-8.9,1.3
		c-5.8,0.7-11.6-0.1-17.3-1.2c-8.1-1.5-14.9-5.3-20.4-11.5c-2.9-3.2-4.6-7.1-6-11.1c-1.1-3.1-1.8-6.3-1.9-9.6
		c-0.1-10.1-0.3-20.1-0.2-30.2c0-8.1,2.5-15.5,7.5-21.8c5.3-6.7,12.3-10.5,20.6-12.2C259.5,15.1,263.9,14.5,268.3,14.6z M253.7,64.1
		C253.7,64.1,253.7,64.1,253.7,64.1c0.1,5,0,9.9,0.1,14.9c0.1,4,2,7.2,5.6,9c4.2,2.2,8.8,2.8,13.4,1.7c3.3-0.8,6.3-2.1,8.4-5.1
		c1.7-2.5,2.1-5.4,2.1-8.3c0-7.2,0-14.4-0.1-21.7c0-2.2,0-4.4-0.4-6.6c-0.7-4.3-3.3-7.4-7.4-8.9c-4.1-1.5-8.4-1.3-12.6-0.6
		c-5.3,0.9-9,5.3-9,10.8C253.6,54.2,253.7,59.1,253.7,64.1z"/>
	<path style="fill:#333233;" d="M508.4,63.7c0-5.2-0.4-10.4,0.1-15.5c1.2-14.7,8.3-25.5,22.4-30.7c3.1-1.2,6.5-1.7,9.8-2.3
		c2.6-0.5,5.3-0.8,8-0.7c4.8,0.1,9.6,0.7,14.4,1.6c7.4,1.5,13.8,4.9,18.8,10.5c3.3,3.6,5.5,7.8,6.8,12.6c1.6,5.6,2,11.4,2,17.2
		c0,6.9,0.1,13.8-0.1,20.7c-0.2,7.3-1.7,14.4-5.9,20.6c-5.1,7.7-12.4,12.3-21.4,14.1c-3.8,0.8-7.7,1.4-11.6,1.7
		c-3.1,0.2-6.3-0.1-9.5-0.4c-2.2-0.2-4.5-0.5-6.7-1c-8.8-2.3-16.3-6.6-21.5-14.4c-2.2-3.3-3.6-6.8-4.5-10.6
		c-1.6-6.4-1.3-13-1.4-19.6c0-1.3,0-2.5,0-3.8C508.3,63.7,508.4,63.7,508.4,63.7z M548.8,37.8c-2,0.3-4,0.3-5.9,0.9
		c-5,1.5-8,5.4-8,11.8c0,8.4,0,16.9,0,25.3c0,1.2,0.1,2.4,0.2,3.6c0.3,4.6,3,7.7,7,9.3c4.3,1.7,8.8,2,13.3,0.5
		c4.1-1.3,7.1-3.8,8.3-8c0.5-1.6,0.6-3.4,0.6-5c0-9-0.1-17.9-0.2-26.9c-0.1-4.7-2.6-7.9-6.7-9.9C554.8,38,551.8,38,548.8,37.8z"/>
	<path style="fill:#333233;" d="M37.8,39.8c0,3.2,0,6.2,0,9.3c0,1.7,0,3.4-0.1,5.2c0,1,0.3,1.2,1.2,1.2c8.4,0,16.9,0,25.3,0
		c0.6,0,1.3,0,1.9,0c4,0.1,5.4,1.4,5.6,5.3c0.2,4.2,0.1,8.5,0,12.7c-0.1,3.9-1.8,5.4-5.8,5.4c-8.9,0-17.9,0-26.8,0
		c-0.4,0-0.8,0-1.4,0c0,0.9,0,1.8,0,2.6c0,8.1,0,16.3-0.1,24.4c0,1.1-0.3,2.3-0.6,3.4c-0.4,1.3-1.5,2-2.8,2.1c-4,0.1-8,0.1-12,0.2
		c-2,0-4,0.1-6,0c-3.4-0.1-4.9-1.6-5-5c-0.1-3.9-0.1-7.7-0.1-11.6c0-24.1,0-48.2,0-72.3c0-0.5,0-1,0-1.5c0.2-3,1.9-4.8,5-4.8
		c19.1,0,38.2,0,57.3,0c0.8,0,1.6,0.1,2.3,0.3c1.9,0.6,2.9,2,2.9,3.9c0.1,5,0.1,10,0,15c-0.1,2.6-1.5,4.1-5.2,4.2
		c-11.4,0.1-22.8,0-34.3,0C38.8,39.8,38.4,39.8,37.8,39.8z"/>
	<path style="fill:#333233;" d="M726.6,39.8c-6.9,0-13.7,0-20.4,0c-2.7,0-4.2-1-4.9-3.2c-0.2-0.7-0.2-1.6-0.2-2.3c0-4.3,0-8.6,0-13
		c0-3.4,1.8-4.7,5.1-4.8c1.8-0.1,3.5,0,5.3,0c20.4,0,40.7,0,61.1,0c0.9,0,1.9,0.1,2.8,0.3c2.4,0.7,3.3,1.8,3.4,4.9
		c0.1,4.4,0.1,8.9,0,13.3c0,3.1-1.8,4.8-5.2,4.9c-6.3,0.1-12.7,0-19,0c-0.5,0-0.9,0-1.6,0c0.1,1.2,0.2,2.4,0.2,3.5
		c0,20.5,0,41,0,61.5c0,1.2-0.2,2.5-0.5,3.7c-0.5,2.4-2.3,3.1-4.4,3.1c-5.6,0.1-11.3,0-16.9-0.1c-3.4-0.1-4.7-1.3-4.7-4.9
		c-0.1-18.5-0.1-37-0.1-55.4C726.6,47.4,726.6,43.7,726.6,39.8z"/>
	<path style="fill:#333233;" d="M349,39.8c-5.2,0-10.3,0-15.3,0c-1.8,0-3.5,0-5.3,0c-2.5,0-4.9-1.4-4.9-4.8c0-4.6-0.1-9.2,0-13.9
		c0-3.1,1.8-4.8,4.9-4.8c4,0,8.1,0,12.1,0c18,0,36,0,54,0c5.3,0,6.5,1.1,6.7,6.3c0.1,3.9,0,7.7,0,11.6c0,0.9-0.2,1.8-0.4,2.7
		c-0.6,1.8-2.4,2.8-4.8,2.8c-6.3,0-12.5,0-18.8,0c-0.5,0-0.9,0-1.4,0c0,0.4-0.1,0.8-0.1,1.1c0,21.2,0,42.4,0,63.6
		c0,1.4-0.2,2.9-0.5,4.2c-0.4,1.6-1.5,2.6-3.3,2.7c-4,0.1-8.1,0.1-12.1,0.1c-2.4,0-4.8-0.1-7.2-0.1c-1.4,0-2.4-0.8-2.9-2.1
		c-0.4-1-0.7-2.2-0.7-3.3c0-21.1,0-42.2,0-63.2C349,41.9,349,40.9,349,39.8z"/>
</g>
</svg>
