<?xml version="1.0" encoding="utf-8"?>
<!-- Generator: Adobe Illustrator 27.7.0, SVG Export Plug-In . SVG Version: 6.00 Build 0)  -->
<svg version="1.1" id="Layer_1" xmlns="http://www.w3.org/2000/svg" xmlns:xlink="http://www.w3.org/1999/xlink" x="0px" y="0px"
	 width="30px" height="30px" viewBox="0 0 30 30" style="enable-background:new 0 0 30 30;" xml:space="preserve">
<style type="text/css">
	.st0{fill:#1481C5;}
</style>
<path class="st0" d="M5.3,1.8c0.3-0.2,0.5-0.4,0.8-0.6c0.7-0.5,1.6-0.9,2.5-1C8.8,0.2,9,0.3,9,0.6s0,0.6,0,0.9
	c0,1.3,0.4,2.6,1.1,3.6c0.6,1,1.6,1.9,2.6,2.6c1,0.8,2.3,1.4,3.6,1.9c-0.2-0.5-0.4-0.9-0.6-1.4c-0.2-0.3-0.3-0.6-0.3-0.9
	c-0.1-0.3,0.1-0.5,0.4-0.6c0.8-0.2,1.6-0.3,2.4-0.5c0.4-0.1,0.7,0,0.9,0.5c0.6,1.6,1.3,3.2,2,4.8c0.8,2.1,1.7,4.1,2.5,6.2
	c0.5,1.2,1,2.6,1.6,3.8c0.4,0.9,0.9,1.8,1.6,2.5c0.7,0.9,1.6,1.9,2.2,2.9c0.6,1.2,0,2.2-1,2.7c-0.9,0.5-2.1,0.4-3.1,0.2
	s-2.1-0.6-3-1.1c-0.1,0-0.2-0.1-0.2-0.1c-0.4,0.4-0.9,0.8-1.3,1.2c-0.3,0.2-0.6,0.2-0.9-0.1c-0.3-0.2-0.5-0.5-0.8-0.7
	s-0.4-0.6-0.1-1.1c0.2-0.4,0.5-0.7,0.8-1.1c-0.3-0.2-0.6-0.5-0.8-0.7c-0.3,0.3-0.7,0.6-1,0.9s-0.7,0.3-1,0c-0.3-0.2-0.5-0.5-0.8-0.7
	c-0.3-0.2-0.4-0.6-0.1-1.1c0.2-0.4,0.5-0.8,0.8-1.2c-2.7-2.3-5.3-4.6-8-6.8C8,17,7.6,17.2,7.4,17.6c-0.6,0.7-1.1,0.7-1.8,0.1
	c-0.4,0-0.6-0.2-0.8-0.4C4.5,16.8,4.6,16.4,5,16c0.3-0.3,0.5-0.7,0.7-1c-0.2-0.2-0.4-0.4-0.6-0.6c-0.2-0.2-0.3-0.1-0.4,0
	C4.3,14.7,4,15,3.7,15.3c-0.3,0.3-0.7,0.3-1,0.1c-0.4-0.2-0.7-0.5-1-0.8c-0.3-0.4-0.3-0.8,0-1.2s0.6-0.8,0.8-1.1
	c-0.5-0.6-0.9-1.2-1.3-1.9C0.8,9.7,0.8,9.1,1,8.4c0.4-0.8,0.8-1.8,1.3-2.6c0.4-0.7,0.9-1.4,1.3-2.2V3.6C4.2,3.1,4.8,2.4,5.3,1.8z
	 M20.2,14.3c-0.3-0.5-0.6-0.9-0.9-1.4c-0.2-0.2-0.4-0.3-0.6-0.3c-0.4,0-0.9,0-1.3,0.1c-1.4,0-2.8,0-4.2,0.1c-0.6,0-1.2,0-1.9,0
	c-1.1,0-2.3,0-3.4,0c0.7,0.6,1.3,1.1,2,1.8c0.1,0.1,0.2,0.1,0.2,0.1c1.3,0,2.7-0.1,4-0.1c0.9,0,1.9-0.1,2.8-0.1c0.4,0,0.7,0,1.1,0
	C18.7,14.3,19.5,14.3,20.2,14.3z M21.5,17.8c-0.4-0.5-0.7-1-1-1.6c-0.1-0.1-0.2-0.2-0.3-0.2c-1,0-2.1,0-3.1,0.1
	c-0.8,0-1.8,0.1-2.6,0.1c-0.4,0-0.8,0-1.2,0c-0.4,0-0.9,0-1.4,0.1c0.6,0.5,1.2,1,1.8,1.6c0.1,0.1,0.4,0.2,0.5,0.2
	c0.9,0,2-0.1,2.9-0.1c0.4,0,0.8,0,1.2,0C19.3,17.9,20.4,17.8,21.5,17.8z"/>
</svg>
